<svg height="512pt" viewBox="0 -104 512 512" width="512pt" xmlns="http://www.w3.org/2000/svg"><path d="m479.558594 97.691406c3.96875-49.882812-16.253906-87.300781-17.4375-89.433594l-4.570313-8.257812-9.421875.550781c-66.679687 3.890625-107.609375 31.492188-130.207031 53.964844-15.425781 15.339844-24.671875 30.476563-29.558594 40.007813h-64.726562c-4.886719-9.53125-14.132813-24.667969-29.558594-40.007813-22.597656-22.472656-63.527344-50.074219-130.207031-53.964844l-9.421875-.550781-4.570313 8.257812c-1.183594 2.132813-21.40625 39.550782-17.4375 89.433594h-32.441406v107.667969h32.441406c-3.96875 49.882813 16.253906 87.300781 17.4375 89.433594l4.570313 8.257812 9.421875-.550781c66.679687-3.890625 107.609375-31.492188 130.207031-53.964844 15.425781-15.339844 24.671875-30.476562 29.558594-40.011718h64.726562c4.886719 9.535156 14.132813 24.671874 29.558594 40.011718 22.597656 22.472656 63.527344 50.074219 130.207031 53.964844l9.421875.550781 4.570313-8.257812c1.183594-2.132813 21.40625-39.550781 17.4375-89.433594h32.441406v-107.667969zm-265.558594 68.832032h-55.332031v-30h55.332031zm139.332031 0h-55.332031v-30h55.332031zm0 0"/></svg>