<svg xmlns="http://www.w3.org/2000/svg" viewBox="0 0 512 512"><path d="M422.675 326.069c3.463-92.091 12.706-185.587 28.12-278.094.145-1.148.189-2.269.137-3.362C448.881 2.222 301.101.5 256 .5c-72.832 0-195 5.845-195 45 0 1.161.526 4.374.615 4.907 15.095 90.612 24.269 183.675 27.715 275.66C32.459 345.573 0 373.823 0 406.5c0 68.203 132.382 105 256 105s256-36.797 256-105c0-32.675-32.458-60.925-89.325-80.431zM391 403.984c-10.43 6.914-57.539 18.516-135 18.516s-124.57-11.602-135-18.516c-.015-9.326-.485-18.677-.621-28.011C160.115 390.901 229.131 392.5 256 392.5s95.885-1.599 135.621-16.527c-.136 9.335-.606 18.686-.621 28.011zM256 60.5c-79.028 0-130.972-8.027-154.072-15 23.101-6.973 75.044-15 154.072-15s130.972 8.027 154.072 15c-23.1 6.973-75.044 15-154.072 15z"/></svg>